<svg width="64" height="64" xmlns="http://www.w3.org/2000/svg" enable-background="new 0 0 64 64">

 <g>
  <title>Layer 1</title>
  <path id="svg_1" fill="#ed4c5c" d="m16.9,14.2c-1.8,0.8 -2.9,2.4 -4.7,0.8c-1.8,-1.6 -2.5,-1.3 -3.2,-1.1c0,0 1.1,-0.2 2.3,1c1.2,1.1 1.7,2.3 4.3,1.3c1.9,-0.7 3.7,-1 4.6,-0.7c0.9,0.3 0.9,-3.3 -3.3,-1.3"/>
  <g id="svg_2" fill="#fff">
   <path id="svg_3" d="m4.9,15.6l0.7,-1.3l4.5,-1.3l-6.3,0l1.1,2.6z"/>
   <path id="svg_4" d="m11.2,17.3l-4.8,-1.5l-0.4,-0.7l-1.1,2.2l6.3,0z"/>
  </g>
  <g id="svg_5" fill="#64892f">
   <path fill="#5f00bf" id="svg_6" d="m35.1,56.1c-3.1,-0.3 -4.1,1.1 -5.7,0.9c0,0 0.9,0.6 2.1,0.7c0,0 -2.3,1.2 -6.1,0.6c0,0 2.6,2.5 5.8,1.8c0,0 -0.3,0.8 -1.2,1.4c0,0 1.9,0.6 3.6,-0.7c0,0 0.2,0.5 -0.9,1.3c7.5,-0.6 5.6,-5.7 2.4,-6"/>
   <path fill="#5f00bf" id="svg_7" d="m62,20.1c-1.6,-4.2 -4.8,-6.2 -4.8,-6.2c1.2,-0.6 2.9,-0.2 2.9,-0.2c-2.4,-3.3 -7.8,-4.2 -7.8,-4.2c0.7,-0.6 3,-0.9 3,-0.9c-3.5,-2.2 -8.5,-1.4 -8.5,-1.4c0.3,-1.1 1.5,-1.8 1.5,-1.8c-4.9,-1.4 -9.7,0.6 -9.7,0.6c0.1,-1.1 1.6,-2 1.6,-2c-2.2,-0.6 -8.4,1 -8.4,1c0.6,-1.4 -0.6,-2.7 -0.6,-2.7c-2.2,1.6 -6.5,1.4 -6.5,1.4c0.2,-0.8 1.2,-1.7 1.2,-1.7c-10.4,0 -9.1,5.8 -9.1,5.8c0,0 33.2,-2.4 33.2,13.7c0,16.9 -37.8,-3.1 -37.8,15.2c0,20.1 40.4,-3.2 40.4,12.1c0,8.5 -12.8,9.9 -12.8,9.9c-1.8,0.5 -1.1,1.9 -1.1,1.9c1.4,-1.3 5.8,-1.3 5.8,-1.3c-0.1,0.5 -1,1.4 -1,1.4c4.4,-0.4 6.3,-1.8 6.3,-1.8c0.2,0.6 -0.9,1.5 -0.9,1.5c4.4,-0.3 5.6,-3.3 5.6,-3.3c0.9,0.4 0.7,1.2 0.7,1.2c3.5,-1.8 3.7,-5.3 3.7,-5.3c0.8,0.2 1.8,0.9 1.8,0.9c1,-4.2 -1.1,-6.7 -1.1,-6.7c0.3,0.3 1.7,0.4 1.7,0.4c-0.1,-3.5 -2.8,-4.9 -2.8,-4.9c0.9,-1 2.7,-0.1 2.7,-0.1c-1.8,-4.6 -6.8,-4.2 -6.8,-4.2c0.6,-0.8 2.8,-1.4 2.8,-1.4c-2.4,-1.7 -8.2,-1 -8.2,-1c4.9,-1.2 6.2,-4.6 6.2,-4.6c0.2,0.6 0.1,2.7 0.1,2.7c3.6,-2.9 2.8,-6.7 2.8,-6.7c1.2,0.4 1.8,2 1.8,2c2.6,-5.1 -0.3,-8.4 -0.3,-8.4c1.5,0.1 2.4,-0.9 2.4,-0.9m-31.8,18.7c-0.5,-1.5 -3.4,-1.4 -3.4,-1.4c0,2.1 -4.7,3.6 -4.7,3.6c0,-2.2 -1.9,-2.9 -1.9,-2.9c-2.4,3.9 -3.5,1.5 -3.5,1.5c1.5,-1.2 0.7,-3.1 0.7,-3.1c-4.6,0.9 -1.3,-2.6 -1.3,-2.6c0.5,2.2 3.2,1.2 3.2,1.2c-0.8,-3.3 3.7,-2.8 3.7,-2.8c-1,1.7 0.8,2.7 0.8,2.7c1.8,-1.5 6.6,-1.4 6.6,-1.4c-1.4,0.7 -2.2,2.8 -2.2,2.8c3.9,0.1 6.2,-0.6 6.2,-0.6c-1.8,2.5 -4.2,3 -4.2,3"/>
  </g>
  <path id="svg_8" fill="#60a0e0" d="m32,39.9c-15.1,5.6 -18.7,1.7 -18.7,-3.7c0,-8.6 13.2,-4.7 18.7,-3.7c7.8,1.5 26.2,3.2 26.2,-11c0,-18.4 -35.6,-14.7 -35.6,-14.7l0,11c6.9,-1.3 26.2,-3.5 26.2,3.7c0,5.6 -6.3,6.9 -16.9,3.7c-10.4,-3.2 -26.1,-6.4 -26.1,11.1c0,17.5 14.2,15.3 26.2,11c12.1,-4.2 19.7,-1.8 19.7,1.8c0,4.8 -9.2,7.6 -15,9c0,0 -1.4,-1.5 -3.3,-0.6c0,0 0.4,0.2 0.6,0.5c0,0 -1.9,1 -3.3,1c0,0 1.2,1.4 4,0.6c0,0 0.1,0.8 -0.2,1.3c0,0 1.8,-0.1 2.2,-1.5c16.2,-0.4 21.6,-3.6 21.6,-11.2c-0.1,-8.5 -11.2,-13.9 -26.3,-8.3"/>
  <path id="svg_9" fill="#5f00bf" d="m24.2,4.9c5.5,0 7.8,3.4 11.1,2.5c0,0 -0.9,2.7 -4.2,2.2c0,0 2.2,2.5 6.2,1.8c0,0 -2,4.1 -6.2,2c0,0 -0.1,2.4 2.6,4.2c0,0 -2.9,1.5 -5.2,-0.1c0,0 -0.8,0.8 0.2,2.4c0,0 -2.4,-0.3 -3.3,-1.9l-1.2,-13.1"/>
  <path id="svg_10" fill="#60a0e0" d="m20.7,4.1c-5,0 -8,2.7 -8,4.6c0,0.2 0,0.5 0.1,0.7c-0.1,0.3 -2.1,-0.7 -3.4,-0.7c-0.7,0 -1.4,0.2 -2,0.7c-0.5,-1 -1.5,-1.6 -2.6,-1.6c-1.5,0 -2.8,1.2 -2.8,2.7s1.3,2.8 2.8,2.8l13.1,0c1,0 1.9,0.8 1.9,1.8c0,1 -0.8,1.8 -1.9,1.8l-14,0c-1,0 -1.9,0.8 -1.9,1.8c0,1 0.8,1.8 1.9,1.8l16.9,0c4.7,0 8.4,-3.7 8.4,-8.3s-3.8,-8.1 -8.5,-8.1"/>
  <ellipse id="svg_11" fill="#fff" ry="1.8" rx="1.9" cy="8.8" cx="15.7"/>
  <ellipse id="svg_12" fill="#3e4347" ry="0.9" rx="0.9" cy="8.8" cx="15.7"/>
  <g id="svg_13" fill="#64892f">
   <path fill="#5f00bf" id="svg_14" d="m13.1,8.6c1.4,0.6 2.8,-2.2 8.2,-2c0,0 -2.2,-1.6 -5.1,-0.7c0,0 -0.4,-1 1.1,-1.7c0,0 -2.7,-0.3 -3.4,2c0,0 -0.8,-0.2 -1,-1.2c0.1,-0.1 -1.8,2.6 0.2,3.6"/>
   <path fill="#5f00bf" id="svg_15" d="m7.3,10.6c0.7,-0.6 2.5,-1.1 4.7,0.1c4.7,2.5 6,-1.6 9,0.1c-2.8,-0.5 -3.7,3.2 -8.3,1.7c-1.9,-0.6 -2.9,-1.7 -4.3,-0.8c-0.9,0.6 -1.7,-0.5 -1.1,-1.1"/>
  </g>
  <path id="svg_16" fill="#3e4347" d="m4.1,10.4c-0.5,-0.3 0.6,-1.9 1.1,-1.6c1.4,0.6 0.3,2.3 -1.1,1.6"/>
  <path id="svg_17" fill="#5f00bf" d="m7.5,21c0.9,2.2 2,2.3 2,2.3s-2.3,0.7 -3.5,-1c0,0 1.2,2.3 3,3.2c0,0 -3.4,1.2 -4.6,-2.1c0,0 -0.3,1.8 0.6,2.8c-6.9,-3.6 -0.2,-11.8 2.5,-5.2"/>
 </g>
</svg>